# xmcd
#
# Track frame offsets:
#	150
#	11392
#	22051
#	35467
#	46430
#	57826
#	71917
#	82764
#	97575
#	111241
#	125942
#	135537
#	149580
#	161382
#	175421
#	187457
#	199643
#	212250
#	224721
#	239933
#	250689
#	264718
#	275547
#	287477
#
# Disc length: 4013 seconds
#
# Revision: 1
# Processed by: cddbd v1.5.2PL0 Copyright (c) Steve Scherf et al.
# Submitted via: audiograbber 1.83.01
#
DISCID=730fab18
DTITLE=Various Artist - (Will there always be) Yodelers in Heaven?
DYEAR=2006
DGENRE=Country Boogie
TTITLE0=Jimmie Rogers - The Yodeling Ranger
TTITLE1=Eddy Arnold - Cattle Call
TTITLE2=Sons of the Pioneers - The Devil's Great Grand Son
TTITLE3=Rosalie Allen - Wide Rolling Plains
TTITLE4=Ernest Tubb - Married Man Blues
TTITLE5=Red Foley - Yodeling Radio Joe
TTITLE6=Elton Britt - Give me a Pinto Pal
TTITLE7=The Carter Family - My Clinch Mountain Home
TTITLE8=Roy Rogers - Cowboy Night Herd Song
TTITLE9=Bill Monroe and His Blue Grass Boys - Blue Yodel No.4
TTITLE10=Tennessee Ernie Ford - Anticipation Blues
TTITLE11=Wilf Carter (Montana Slim) - A Little Old Log Shack I Can Always Call 
TTITLE11=my Home
TTITLE12=Hank Williams - Long Gone Lonesome Blues
TTITLE13=Ray Whitley - Blue Yodel Blues
TTITLE14=The Girls of The Golden West - Will There be Any Yodelers in Heaven
TTITLE15=Slim Whitman - I'm Casting my Lasso Towards The Sky
TTITLE16=Roy Acuff - Mule Skinner Blues
TTITLE17=Hank Snow - Lonesome Blue Yodel
TTITLE18=Cliff Carlisle - The Nasty Song
TTITLE19=Bob Wills and His Texas Playboys - Blue Yodel No.1
TTITLE20=Patsy Montana - I Want to be a Cowboy's Sweetheart
TTITLE21=Rex Griffin - You Got to go to Work
TTITLE22=The Delmore Brothers - Lonesome Yodel Blues
TTITLE23=Gene Autry - A Yodeling Hobo
EXTD=
EXTT0=
EXTT1=
EXTT2=
EXTT3=
EXTT4=
EXTT5=
EXTT6=
EXTT7=
EXTT8=
EXTT9=
EXTT10=
EXTT11=
EXTT12=
EXTT13=
EXTT14=
EXTT15=
EXTT16=
EXTT17=
EXTT18=
EXTT19=
EXTT20=
EXTT21=
EXTT22=
EXTT23=
PLAYORDER=
